<svg width="161" height="171" viewBox="0 0 161 171" fill="none" xmlns="http://www.w3.org/2000/svg">
<path d="M88.9707 147.756C124.386 147.756 153.097 118.849 153.097 83.0651C153.097 47.2812 124.259 18.374 88.9707 18.374C53.5557 18.374 24.8442 47.2812 24.8442 83.0651C24.8442 118.849 53.5557 147.756 88.9707 147.756Z" fill="#EAEEF9"/>
<path d="M148.924 40.66C151.788 40.66 154.109 38.3224 154.109 35.4389C154.109 32.5554 151.788 30.2178 148.924 30.2178C146.06 30.2178 143.738 32.5554 143.738 35.4389C143.738 38.3224 146.06 40.66 148.924 40.66Z" fill="#EAEEF9"/>
<path d="M156.513 20.2846C158.469 20.2846 160.054 18.6882 160.054 16.719C160.054 14.7497 158.469 13.1533 156.513 13.1533C154.557 13.1533 152.971 14.7497 152.971 16.719C152.971 18.6882 154.557 20.2846 156.513 20.2846Z" fill="#EAEEF9"/>
<path d="M28.2593 40.5327C30.2152 40.5327 31.8008 38.9363 31.8008 36.967C31.8008 34.9978 30.2152 33.4014 28.2593 33.4014C26.3034 33.4014 24.7178 34.9978 24.7178 36.967C24.7178 38.9363 26.3034 40.5327 28.2593 40.5327Z" fill="#EAEEF9"/>
<path d="M6.63078 109.299C10.2632 109.299 13.2079 106.334 13.2079 102.677C13.2079 99.0194 10.2632 96.0547 6.63078 96.0547C2.99837 96.0547 0.0537109 99.0194 0.0537109 102.677C0.0537109 106.334 2.99837 109.299 6.63078 109.299Z" fill="#EAEEF9"/>
<g filter="url(#filter0_d_204_14281)">
<path d="M132.607 50.7201L133.619 132.73C133.619 135.532 131.343 137.696 128.56 137.696H49.1291C46.3465 137.696 44.0698 135.404 44.0698 132.73V27.2887C44.0698 24.4871 46.3465 22.3223 49.1291 22.3223H106.679L132.607 50.7201Z" fill="#FFF"/>
</g>
<path d="M82.773 121.268H79.8639C79.2315 121.268 78.7256 120.632 78.7256 119.868C78.7256 119.104 79.2315 118.467 79.8639 118.467H82.773C83.4054 118.467 83.9114 119.104 83.9114 119.868C83.9114 120.759 83.4054 121.268 82.773 121.268Z" fill="#CED7E2"/>
<path d="M73.9195 121.268H56.9709C56.3385 121.268 55.8325 120.632 55.8325 119.868C55.8325 119.104 56.3385 118.467 56.9709 118.467H73.9195C74.5519 118.467 75.0578 119.104 75.0578 119.868C75.0578 120.759 74.5519 121.268 73.9195 121.268Z" fill="#D5DDEA"/>
<path d="M95.5479 39.5131H57.4768C56.5914 39.5131 55.8325 38.749 55.8325 37.8576C55.8325 36.9662 56.5914 36.2021 57.4768 36.2021H95.5479C96.4333 36.2021 97.1922 36.9662 97.1922 37.8576C97.1922 38.749 96.4333 39.5131 95.5479 39.5131Z" fill="#D5DDEA"/>
<path d="M72.1487 48.6821H57.4768C56.5914 48.6821 55.8325 47.918 55.8325 47.0266C55.8325 46.1352 56.5914 45.3711 57.4768 45.3711H72.0222C72.9076 45.3711 73.6665 46.1352 73.6665 47.0266C73.6665 47.918 72.9076 48.6821 72.1487 48.6821Z" fill="#D5DDEA"/>
<path d="M106.678 22.3223V44.9896C106.678 48.1732 109.461 50.7201 112.623 50.7201H132.607" fill="#D5DDEA"/>
<path d="M138.678 139.606C137.414 139.606 136.149 139.097 135.137 137.951L114.014 116.684L113.255 117.194C106.425 122.288 98.4571 124.962 90.3622 124.962C80.6231 124.962 70.8839 121.014 63.6745 114.138C56.0855 106.879 51.9116 97.0734 51.9116 86.3764C51.9116 65.1099 69.1132 47.791 90.2357 47.791C104.655 47.791 117.303 55.4317 124.133 68.4208C130.837 81.2826 129.951 96.3093 121.73 108.407L121.224 109.171L142.473 130.565C144.623 132.73 144.117 134.895 143.738 136.041C142.726 138.078 140.702 139.606 138.678 139.606ZM90.2357 58.3606C74.8049 58.3606 62.4096 70.9677 62.4096 86.3764C62.4096 103.95 76.7021 114.52 90.6152 114.52C99.0895 114.52 106.805 110.699 112.244 103.823C118.947 95.4179 120.086 84.0842 115.406 74.2787C110.599 64.4732 100.987 58.3606 90.2357 58.3606Z" fill="#989FB0"/>
<path d="M78.2201 90.9612C79.8644 90.9612 81.2557 89.5604 81.2557 87.9049C81.2557 86.2494 79.8644 84.8486 78.2201 84.8486C76.5759 84.8486 75.1846 86.2494 75.1846 87.9049C75.1846 89.5604 76.5759 90.9612 78.2201 90.9612Z" fill="#989FB0"/>
<path d="M101.493 90.9612C103.137 90.9612 104.528 89.5604 104.528 87.9049C104.528 86.2494 103.137 84.8486 101.493 84.8486C99.8483 84.8486 98.457 86.2494 98.457 87.9049C98.457 89.6877 99.8483 90.9612 101.493 90.9612Z" fill="#989FB0"/>
<path d="M78.1013 77.7938L71.4238 81.4238L72.3252 83.1046L79.0027 79.4745L78.1013 77.7938Z" fill="#989FB0"/>
<path d="M101.08 77.7448L100.179 79.4258L106.857 83.0551L107.758 81.3741L101.08 77.7448Z" fill="#989FB0"/>
<path d="M89.8564 98.0926C91.8124 98.0926 93.398 96.8953 93.398 95.4184C93.398 93.9414 91.8124 92.7441 89.8564 92.7441C87.9005 92.7441 86.3149 93.9414 86.3149 95.4184C86.3149 96.8953 87.9005 98.0926 89.8564 98.0926Z" fill="#989FB0"/>
<defs>
<filter id="filter0_d_204_14281" x="22.0698" y="11.3223" width="133.549" height="159.374" filterUnits="userSpaceOnUse" color-interpolation-filters="sRGB">
<feFlood flood-opacity="0" result="BackgroundImageFix"/>
<feColorMatrix in="SourceAlpha" type="matrix" values="0 0 0 0 0 0 0 0 0 0 0 0 0 0 0 0 0 0 127 0" result="hardAlpha"/>
<feOffset dy="11"/>
<feGaussianBlur stdDeviation="11"/>
<feColorMatrix type="matrix" values="0 0 0 0 0.397708 0 0 0 0 0.47749 0 0 0 0 0.575 0 0 0 0.27 0"/>
<feBlend mode="normal" in2="BackgroundImageFix" result="effect1_dropShadow_204_14281"/>
<feBlend mode="normal" in="SourceGraphic" in2="effect1_dropShadow_204_14281" result="shape"/>
</filter>
<linearGradient id="paint0_linear_204_14281" x1="88.8153" y1="19.6536" x2="88.8153" y2="138.94" gradientUnits="userSpaceOnUse">
<stop stop-color="#FDFEFF"/>
<stop offset="0.9964" stop-color="#ECF0F5"/>
</linearGradient>
</defs>
</svg>
