<svg width="20" height="20" viewBox="0 0 20 20" fill="none" xmlns="http://www.w3.org/2000/svg">
<path fill-rule="evenodd" clip-rule="evenodd" d="M13.5273 8.33333C13.5273 7.8731 13.9004 7.5 14.3607 7.5H16.6667C17.1269 7.5 17.5 7.8731 17.5 8.33333V16.6667C17.5 17.1269 17.1269 17.5 16.6667 17.5H3.33333C2.8731 17.5 2.5 17.1269 2.5 16.6667V15.4167C2.5 14.9564 2.8731 14.5833 3.33333 14.5833H6.25V12.9167C6.25 12.4564 6.6231 12.0833 7.08333 12.0833H10V10.4167C10 9.95643 10.3731 9.58333 10.8333 9.58333H13.5273V8.33333ZM16.6667 8.33333H14.3607V9.58333C14.3607 10.0436 13.9876 10.4167 13.5273 10.4167H10.8333V12.0833C10.8333 12.5436 10.4602 12.9167 10 12.9167H7.08333V14.5833C7.08333 15.0436 6.71024 15.4167 6.25 15.4167H3.33333V16.6667H16.6667V8.33333Z" fill="#34383D"/>
<path fill-rule="evenodd" clip-rule="evenodd" d="M3.75016 12.083C3.98028 12.083 4.16683 12.2696 4.16683 12.4997V14.9997C4.16683 15.2298 3.98028 15.4163 3.75016 15.4163C3.52004 15.4163 3.3335 15.2298 3.3335 14.9997V12.4997C3.3335 12.2696 3.52004 12.083 3.75016 12.083Z" fill="#34383D"/>
<path fill-rule="evenodd" clip-rule="evenodd" d="M15.8332 3.75C16.0633 3.75 16.2498 3.93655 16.2498 4.16667V7.5C16.2498 7.73012 16.0633 7.91667 15.8332 7.91667C15.6031 7.91667 15.4165 7.73012 15.4165 7.5V4.16667C15.4165 3.93655 15.6031 3.75 15.8332 3.75Z" fill="#34383D"/>
<path fill-rule="evenodd" clip-rule="evenodd" d="M17.4235 2.67641C17.5562 2.86441 17.5114 3.12439 17.3234 3.2571L3.15699 13.2571C2.96899 13.3898 2.70901 13.345 2.5763 13.157C2.44359 12.969 2.48841 12.709 2.67641 12.5763L16.8428 2.5763C17.0308 2.44359 17.2908 2.48841 17.4235 2.67641Z" fill="#34383D"/>
</svg>
