<svg width="21" height="20" viewBox="0 0 21 20" fill="none" xmlns="http://www.w3.org/2000/svg">
<g clip-path="url(#clip0_908_1853)">
<path d="M4.39248 0.101327C5.07723 -0.00665471 5.77361 -0.00730131 6.46547 0.008217L6.40598 0.0631777C5.50075 0.656107 4.75005 1.47017 4.20755 2.4045C3.11998 4.27511 2.72361 6.48711 2.81349 8.63123C2.90272 10.377 3.32172 12.1325 4.21014 13.6501C4.35886 13.9217 4.6065 14.1616 4.61038 14.4913C4.63819 15.1987 4.28838 15.8653 3.81507 16.371C3.84611 16.4033 3.8765 16.4356 3.90753 16.468C4.35045 16.9516 4.82311 17.4062 5.27314 17.8834C5.91263 18.6063 6.64134 19.2464 7.26789 19.9822C6.22558 19.9977 5.17098 20.0462 4.14095 19.8516C2.84453 19.6001 1.69359 18.7013 1.14398 17.4999C0.810983 16.8055 0.711407 16.0289 0.685544 15.2679C0.684897 11.7543 0.684897 8.24133 0.685544 4.72837C0.699769 3.55415 1.01078 2.32562 1.83713 1.45465C2.49149 0.716887 3.41806 0.237112 4.39248 0.101327Z" fill="#0068FF"/>
<path d="M13.8858 6.55273C14.1631 6.55273 14.4405 6.55273 14.7186 6.55273C14.714 8.17763 14.714 9.80317 14.7186 11.4281C14.447 11.3899 13.995 11.5639 13.8929 11.2024C13.8761 9.65316 13.8916 8.10263 13.8858 6.55273Z" fill="#0068FF"/>
<path d="M5.40004 6.61026C6.69064 6.60897 7.97996 6.60056 9.26992 6.60961C9.26087 6.86243 9.24664 7.13788 9.07723 7.34221C8.19527 8.44013 7.33207 9.55227 6.45076 10.6502C7.38768 10.656 8.32459 10.6521 9.26151 10.6521C9.24405 10.8713 9.321 11.1267 9.17875 11.3168C9.08952 11.4397 8.92787 11.4287 8.79402 11.43C7.62174 11.4235 6.44946 11.4358 5.27783 11.4235C5.28107 11.1759 5.28365 10.9017 5.45694 10.7045C6.32855 9.61111 7.21051 8.52548 8.07824 7.4295C7.18658 7.43079 6.29428 7.42368 5.40263 7.43338C5.39681 7.15922 5.39875 6.88442 5.40004 6.61026Z" fill="#0068FF"/>
<path d="M16.7834 7.68616C17.7119 7.4786 18.7193 8.08834 18.9734 9.00263C19.2922 9.95377 18.7102 11.0847 17.7487 11.3743C16.9321 11.6621 15.9544 11.2864 15.5309 10.5338C15.1986 9.9777 15.1785 9.24963 15.4805 8.67739C15.7365 8.1724 16.2312 7.80319 16.7834 7.68616ZM16.7678 8.50992C16.2014 8.70972 15.8962 9.39899 16.1174 9.95571C16.3004 10.482 16.9166 10.804 17.4519 10.6424C18.063 10.4963 18.4322 9.78048 18.2156 9.19402C18.0345 8.61338 17.333 8.27844 16.7678 8.50992Z" fill="#0068FF"/>
<path d="M9.90481 8.36396C10.3516 7.81047 11.134 7.53761 11.8233 7.73482C12.0509 7.79237 12.2571 7.90617 12.4563 8.02708C12.4543 7.9663 12.4498 7.84539 12.4479 7.78461C12.7085 7.78332 12.9684 7.78396 13.229 7.78267C13.2277 8.99827 13.2264 10.2139 13.2296 11.4301C13.0382 11.4249 12.8436 11.4476 12.6554 11.4088C12.5235 11.3551 12.4828 11.2109 12.4304 11.0932C11.7114 11.6519 10.5818 11.5252 9.98435 10.8449C9.34745 10.1861 9.31447 9.06358 9.90481 8.36396ZM10.9575 8.5269C10.3587 8.73769 10.0684 9.50908 10.3717 10.0652C10.6303 10.607 11.3584 10.8346 11.8789 10.5359C12.3619 10.2824 12.585 9.65327 12.3774 9.15022C12.1763 8.6032 11.498 8.29671 10.9575 8.5269Z" fill="#0068FF"/>
<path d="M6.40606 0.0627465C6.5509 0.0213644 6.7022 0.00843242 6.85221 0.00390625C9.43795 0.0136052 12.0237 0.00261306 14.6094 0.00713923C15.3006 0.015545 15.9957 -0.03101 16.6818 0.0743853C17.6316 0.146804 18.5459 0.548987 19.2526 1.18459C20.1398 2.03228 20.6131 3.25305 20.6279 4.47059C20.6286 7.8982 20.6267 11.3284 20.6299 14.7547C20.6208 14.7748 20.6034 14.8161 20.5943 14.8368C19.6729 15.8675 18.434 16.5652 17.1389 17.0165C15.3938 17.6114 13.5244 17.8028 11.69 17.6631C9.85565 17.5053 8.00703 17.0262 6.45132 16.0123C5.65601 16.366 4.77858 16.5393 3.90761 16.4675C3.87658 16.4352 3.84619 16.4029 3.81515 16.3706C4.28846 15.8649 4.63827 15.1983 4.61046 14.4909C4.60658 14.1611 4.35894 13.9212 4.21022 13.6497C3.3218 12.1321 2.9028 10.3766 2.81357 8.6308C2.7237 6.48668 3.12006 4.27468 4.20763 2.40407C4.75013 1.46974 5.50083 0.655675 6.40606 0.0627465ZM13.8859 6.55263C13.8917 8.10253 13.8762 9.65306 13.893 11.2023C13.9952 11.5638 14.4471 11.3898 14.7187 11.428C14.7142 9.80307 14.7142 8.17753 14.7187 6.55263C14.4407 6.55263 14.1633 6.55263 13.8859 6.55263ZM5.39996 6.61018C5.39866 6.88434 5.39672 7.15914 5.40254 7.4333C6.2942 7.4236 7.1865 7.43071 8.07816 7.42942C7.21043 8.5254 6.32847 9.61104 5.45686 10.7044C5.28357 10.9016 5.28098 11.1758 5.27775 11.4234C6.44938 11.4357 7.62166 11.4234 8.79394 11.4299C8.92779 11.4286 9.08944 11.4396 9.17867 11.3168C9.32092 11.1267 9.24397 10.8713 9.26143 10.6521C8.32451 10.6521 7.38759 10.6559 6.45068 10.6501C7.33199 9.55219 8.19519 8.44005 9.07715 7.34213C9.24656 7.1378 9.26078 6.86235 9.26984 6.60953C7.97988 6.60048 6.69056 6.60889 5.39996 6.61018ZM16.7833 7.68612C16.2311 7.80315 15.7364 8.17236 15.4804 8.67735C15.1784 9.24959 15.1985 9.97766 15.5308 10.5337C15.9543 11.2864 16.932 11.662 17.7487 11.3743C18.7101 11.0846 19.2921 9.95373 18.9733 9.00259C18.7192 8.0883 17.7118 7.47856 16.7833 7.68612ZM9.90479 8.3631C9.31445 9.06272 9.34743 10.1852 9.98432 10.8441C10.5818 11.5243 11.7114 11.651 12.4304 11.0924C12.4828 11.2101 12.5235 11.3543 12.6554 11.4079C12.8436 11.4467 13.0382 11.4241 13.2296 11.4293C13.2264 10.213 13.2277 8.99742 13.2289 7.78181C12.9684 7.78311 12.7084 7.78246 12.4479 7.78375C12.4498 7.84453 12.4543 7.96545 12.4563 8.02623C12.2571 7.90531 12.0508 7.79151 11.8232 7.73397C11.134 7.53675 10.3516 7.80962 9.90479 8.3631Z" fill="white"/>
<path d="M10.9573 8.52648C11.4978 8.29629 12.1761 8.60278 12.3772 9.1498C12.5848 9.65285 12.3617 10.282 11.8787 10.5355C11.3582 10.8342 10.6301 10.6066 10.3715 10.0647C10.0682 9.50866 10.3585 8.73727 10.9573 8.52648Z" fill="white"/>
<path d="M16.7678 8.5095C17.3329 8.27802 18.0344 8.61296 18.2155 9.1936C18.4321 9.78006 18.0629 10.4958 17.4519 10.642C16.9165 10.8036 16.3003 10.4816 16.1173 9.95529C15.8961 9.39857 16.2013 8.7093 16.7678 8.5095Z" fill="white"/>
<path d="M20.5944 14.8369L20.6455 14.7812C20.672 15.7919 20.5627 16.8465 20.0668 17.7459C19.49 18.8011 18.4438 19.5848 17.267 19.8357C16.6069 19.9721 15.9299 20.0025 15.2574 19.9941C13.189 19.9948 11.1205 19.9941 9.05203 19.9948C8.45717 19.9851 7.861 20.0129 7.26808 19.9818C6.64152 19.246 5.91281 18.6059 5.27333 17.883C4.8233 17.4058 4.35063 16.9512 3.90771 16.4676C4.77868 16.5393 5.65611 16.3661 6.45142 16.0124C8.00713 17.0262 9.85575 17.5054 11.6901 17.6631C13.5245 17.8028 15.3939 17.6114 17.139 17.0165C18.4341 16.5652 19.673 15.8675 20.5944 14.8369Z" fill="#005BE0"/>
</g>
<defs>
<clipPath id="clip0_908_1853">
<rect width="20" height="20" fill="white" transform="translate(0.666992)"/>
</clipPath>
</defs>
</svg>
