<svg width="129" height="34" viewBox="0 0 129 34" fill="none" xmlns="http://www.w3.org/2000/svg">
<path d="M40.7859 19.8649C40.246 19.8649 39.7292 19.7885 39.2365 19.6357C38.7438 19.4829 38.2913 19.2546 37.8801 18.949C37.4689 18.6443 37.1109 18.2713 36.8063 17.8309C36.5006 17.3905 36.2603 16.8777 36.0844 16.2905L38.3205 15.4097C38.4844 16.0442 38.772 16.569 39.1832 16.9853C39.5944 17.4025 40.1344 17.6107 40.803 17.6107C41.0493 17.6107 41.2876 17.5785 41.5159 17.5142C41.7451 17.4498 41.9502 17.3553 42.1322 17.2326C42.3142 17.1089 42.458 16.9541 42.5636 16.7661C42.6691 16.5781 42.7224 16.3609 42.7224 16.1145C42.7224 15.8803 42.6812 15.6681 42.5988 15.4801C42.5163 15.2921 42.3786 15.1161 42.1845 14.9522C41.9905 14.7883 41.7381 14.6295 41.4274 14.4766C41.1167 14.3238 40.7316 14.1659 40.2741 14.0011L39.4989 13.7195C39.1581 13.6029 38.8152 13.444 38.4683 13.2439C38.1214 13.0449 37.8077 12.8035 37.5262 12.522C37.2447 12.2405 37.0124 11.9087 36.8304 11.5276C36.6484 11.1465 36.5579 10.7152 36.5579 10.2336C36.5579 9.7409 36.6544 9.28039 36.8485 8.85106C37.0426 8.42273 37.3181 8.04669 37.676 7.72393C38.034 7.40118 38.4623 7.14881 38.961 6.96682C39.4597 6.78483 40.0147 6.69434 40.625 6.69434C41.2595 6.69434 41.8075 6.7798 42.272 6.94973C42.7355 7.11965 43.1286 7.33683 43.4514 7.60127C43.7741 7.86571 44.0356 8.15628 44.2347 8.473C44.4337 8.78973 44.5805 9.08936 44.6751 9.37089L42.5797 10.2517C42.462 9.89976 42.2479 9.58203 41.9372 9.3005C41.6265 9.01897 41.2002 8.87821 40.6602 8.87821C40.1434 8.87821 39.7151 8.99886 39.3752 9.23917C39.0344 9.47948 38.8645 9.79419 38.8645 10.1813C38.8645 10.5573 39.0284 10.8771 39.3571 11.1405C39.6859 11.4049 40.2078 11.6603 40.9247 11.9067L41.717 12.1711C42.2217 12.3471 42.6822 12.5502 43.0995 12.7784C43.5157 13.0077 43.8747 13.2801 44.1733 13.5969C44.473 13.9136 44.7012 14.2745 44.8601 14.6797C45.0189 15.0849 45.0973 15.5515 45.0973 16.0794C45.0973 16.7369 44.9656 17.303 44.7012 17.7786C44.4368 18.2542 44.0999 18.6443 43.6887 18.95C43.2775 19.2556 42.8139 19.4839 42.2981 19.6367C41.7833 19.7885 41.2796 19.8649 40.7859 19.8649Z" fill="black"/>
<path d="M48.8156 6.97559H51.1573L55.0132 13.6489H55.154L59.01 6.97559H61.3698V19.5831H59.01V13.3673L59.1507 11.2538H59.01L55.8056 16.9066H54.3798L51.1573 11.2538H51.0165L51.1573 13.3673V19.5831H48.8156V6.97559Z" fill="black"/>
<path d="M69.3471 6.97559H72.0589L76.7956 19.5831H74.1724L73.1337 16.5717H68.2733L67.2347 19.5831H64.6114L69.3471 6.97559ZM72.3585 14.3889L71.2314 11.2368L70.7739 9.70442H70.6331L70.1746 11.2368L69.0475 14.3889H72.3585Z" fill="black"/>
<path d="M80.0353 6.97559H84.6313C85.2648 6.97559 85.8399 7.07513 86.3567 7.27521C86.8735 7.4753 87.3159 7.7508 87.6859 8.10271C88.0559 8.45463 88.3405 8.87491 88.5396 9.36155C88.7387 9.84921 88.8392 10.3801 88.8392 10.9552C88.8392 11.3775 88.7688 11.7737 88.6281 12.1437C88.4873 12.5137 88.2932 12.8485 88.0469 13.1471C87.8006 13.4468 87.513 13.7102 87.1842 13.9394C86.8554 14.1687 86.5095 14.3477 86.1456 14.4764L86.1275 14.6L89.5088 19.4424V19.5831H86.779L83.5213 14.8464H82.4123V19.5831H80.0353V6.97559ZM84.6142 12.6635C85.1542 12.6635 85.5976 12.4996 85.9435 12.1708C86.2893 11.842 86.4633 11.4258 86.4633 10.921C86.4633 10.6978 86.4251 10.4806 86.3487 10.2695C86.2722 10.0583 86.1576 9.87032 86.0048 9.70643C85.852 9.54254 85.6619 9.40982 85.4327 9.31028C85.2034 9.21074 84.942 9.16046 84.6494 9.16046H82.4133V12.6645H84.6142V12.6635Z" fill="black"/>
<path d="M95.3908 19.5831V9.22984H91.8687V6.97559H101.29V9.22984H97.7677V19.5841H95.3908V19.5831Z" fill="black"/>
<path d="M110.182 19.865C109.243 19.865 108.371 19.695 107.567 19.3542C106.763 19.0133 106.067 18.5468 105.481 17.9546C104.893 17.3624 104.433 16.6636 104.098 15.8592C103.763 15.0548 103.596 14.1951 103.596 13.2792C103.596 12.3632 103.763 11.5035 104.098 10.6991C104.433 9.89476 104.893 9.19697 105.481 8.60374C106.068 8.01153 106.763 7.54398 107.567 7.20413C108.371 6.86328 109.242 6.69336 110.182 6.69336C111.121 6.69336 111.993 6.86328 112.797 7.20413C113.602 7.54499 114.297 8.01153 114.884 8.60374C115.471 9.19697 115.931 9.89476 116.266 10.6991C116.601 11.5035 116.768 12.3632 116.768 13.2792C116.768 14.1951 116.601 15.0548 116.266 15.8592C115.931 16.6636 115.471 17.3624 114.884 17.9546C114.297 18.5478 113.601 19.0143 112.797 19.3542C111.992 19.695 111.121 19.865 110.182 19.865ZM110.182 17.6117C110.769 17.6117 111.318 17.5061 111.829 17.295C112.34 17.0838 112.785 16.7902 113.167 16.4142C113.548 16.0382 113.848 15.5837 114.065 15.0498C114.282 14.5159 114.391 13.9257 114.391 13.2802C114.391 12.6347 114.282 12.0444 114.065 11.5105C113.848 10.9766 113.548 10.5222 113.167 10.1461C112.785 9.77109 112.34 9.47749 111.829 9.26534C111.318 9.05419 110.769 8.94862 110.182 8.94862C109.595 8.94862 109.046 9.05419 108.536 9.26534C108.025 9.47649 107.579 9.77008 107.198 10.1461C106.817 10.5222 106.517 10.9766 106.3 11.5105C106.083 12.0444 105.974 12.6347 105.974 13.2802C105.974 13.9257 106.083 14.5159 106.3 15.0498C106.517 15.5837 106.817 16.0392 107.198 16.4142C107.579 16.7902 108.025 17.0828 108.536 17.295C109.046 17.5061 109.595 17.6117 110.182 17.6117Z" fill="black"/>
<path d="M124.304 19.8649C123.764 19.8649 123.247 19.7885 122.754 19.6357C122.262 19.4829 121.809 19.2546 121.398 18.949C120.987 18.6443 120.629 18.2713 120.324 17.8309C120.019 17.3905 119.778 16.8777 119.602 16.2905L121.838 15.4097C122.002 16.0442 122.29 16.569 122.701 16.9853C123.112 17.4025 123.652 17.6107 124.321 17.6107C124.567 17.6107 124.806 17.5785 125.034 17.5142C125.263 17.4498 125.468 17.3553 125.65 17.2326C125.832 17.1089 125.976 16.9541 126.082 16.7661C126.187 16.5781 126.24 16.3609 126.24 16.1145C126.24 15.8803 126.199 15.6681 126.117 15.4801C126.034 15.2921 125.897 15.1161 125.702 14.9522C125.508 14.7883 125.256 14.6295 124.945 14.4766C124.635 14.3238 124.25 14.1659 123.792 14.0011L123.017 13.7195C122.676 13.6029 122.333 13.444 121.986 13.2439C121.639 13.0449 121.326 12.8035 121.044 12.522C120.763 12.2405 120.53 11.9087 120.348 11.5276C120.166 11.1465 120.076 10.7152 120.076 10.2336C120.076 9.7409 120.172 9.28039 120.366 8.85106C120.561 8.42273 120.836 8.04669 121.194 7.72393C121.552 7.40118 121.98 7.14881 122.479 6.96682C122.978 6.78483 123.533 6.69434 124.143 6.69434C124.777 6.69434 125.325 6.7798 125.79 6.94973C126.253 7.11965 126.647 7.33683 126.969 7.60127C127.292 7.86571 127.554 8.15628 127.753 8.473C127.952 8.78973 128.098 9.08936 128.193 9.37089L126.098 10.2517C125.98 9.89976 125.766 9.58203 125.455 9.3005C125.144 9.01897 124.718 8.87821 124.178 8.87821C123.661 8.87821 123.233 8.99886 122.893 9.23917C122.552 9.47948 122.382 9.79419 122.382 10.1813C122.382 10.5573 122.546 10.8771 122.875 11.1405C123.204 11.4049 123.726 11.6603 124.443 11.9067L125.235 12.1711C125.74 12.3471 126.2 12.5502 126.617 12.7784C127.034 13.0077 127.393 13.2801 127.691 13.5969C127.991 13.9136 128.219 14.2745 128.378 14.6797C128.537 15.0849 128.615 15.5515 128.615 16.0794C128.615 16.7369 128.484 17.303 128.219 17.7786C127.955 18.2542 127.618 18.6443 127.207 18.95C126.795 19.2556 126.332 19.4839 125.816 19.6367C125.301 19.7885 124.797 19.8649 124.304 19.8649Z" fill="black"/>
<path d="M38.2571 25.5934C38.2571 25.8719 38.1555 26.0961 37.9514 26.265C37.7443 26.4309 37.4929 26.5133 37.1973 26.5133C36.9339 26.5133 36.7016 26.4369 36.5016 26.2831C36.3005 26.1293 36.1617 25.9191 36.0843 25.6537L36.4744 25.4938C36.5006 25.5883 36.5378 25.6738 36.585 25.7512C36.6323 25.8286 36.6876 25.894 36.7509 25.9483C36.8143 26.0026 36.8846 26.0458 36.9621 26.077C37.0385 26.1082 37.1199 26.1232 37.2064 26.1232C37.3924 26.1232 37.5452 26.075 37.6629 25.9794C37.7815 25.8839 37.8398 25.7552 37.8398 25.5954C37.8398 25.4626 37.7906 25.349 37.693 25.2535C37.6015 25.162 37.4296 25.0735 37.1782 24.9871C36.9239 24.8956 36.766 24.8332 36.7037 24.801C36.3668 24.6301 36.1979 24.3767 36.1979 24.0429C36.1979 23.8097 36.2914 23.6096 36.4774 23.4437C36.6665 23.2778 36.8987 23.1953 37.1732 23.1953C37.4155 23.1953 37.6257 23.2577 37.8026 23.3813C37.9796 23.503 38.0982 23.6548 38.1576 23.8378L37.7765 23.9977C37.7413 23.879 37.6709 23.7805 37.5653 23.7031C37.4608 23.6247 37.3321 23.5854 37.1812 23.5854C37.0214 23.5854 36.8866 23.6297 36.7781 23.7182C36.6685 23.8006 36.6142 23.9082 36.6142 24.0399C36.6142 24.1485 36.6574 24.243 36.7429 24.3224C36.8374 24.4019 37.0425 24.4964 37.3592 24.605C37.681 24.7146 37.9112 24.8493 38.049 25.0072C38.1887 25.168 38.2571 25.3631 38.2571 25.5934Z" fill="black"/>
<path d="M40.5767 26.4428H40.1685V23.2676H40.5767L41.6807 25.2011H41.6988L42.8028 23.2676H43.2111V26.4428H42.8028V24.5576L42.8209 24.0257H42.8028L41.8094 25.7682H41.5701L40.5767 24.0257H40.5586L40.5767 24.5576V26.4428Z" fill="black"/>
<path d="M45.4554 26.4428H45.0029L46.2004 23.2676H46.6619L47.8595 26.4428H47.407L47.1013 25.5822H45.7661L45.4554 26.4428ZM46.4216 23.7683L45.9028 25.2011H46.9586L46.4397 23.7683H46.4216Z" fill="black"/>
<path d="M50.0584 26.4428H49.6501V23.2676H50.732C51.0065 23.2676 51.2408 23.3581 51.4348 23.5401C51.6289 23.7221 51.7254 23.9463 51.7254 24.2117C51.7254 24.4309 51.654 24.625 51.5103 24.7949C51.3665 24.9648 51.1855 25.0734 50.9673 25.1207L50.9583 25.1337L51.8501 26.4247V26.4428H51.3665L50.5108 25.1568H50.0584V26.4428ZM50.0584 23.6577V24.7758H50.7149C50.8808 24.7758 51.0206 24.7215 51.1362 24.6139C51.2519 24.5063 51.3092 24.3726 51.3092 24.2127C51.3092 24.0649 51.2549 23.9352 51.1473 23.8246C51.0397 23.714 50.904 23.6587 50.7411 23.6587H50.0584V23.6577Z" fill="black"/>
<path d="M54.7146 23.6577V26.4428H54.3064V23.6577H53.4196V23.2676H55.6014V23.6577H54.7146Z" fill="black"/>
<path d="M59.3006 23.2676V23.6577H57.8547V24.6642H59.1588V25.0453H57.8547V26.0517H59.3006V26.4419H57.4465V23.2666H59.3006V23.2676Z" fill="black"/>
<path d="M61.6774 26.4428H61.2692V23.2676H62.3511C62.6256 23.2676 62.8599 23.3581 63.0539 23.5401C63.248 23.7221 63.3445 23.9463 63.3445 24.2117C63.3445 24.4309 63.2731 24.625 63.1293 24.7949C62.9856 24.9648 62.8046 25.0734 62.5864 25.1207L62.5773 25.1337L63.4692 26.4247V26.4428H62.9856L62.1299 25.1568H61.6774V26.4428ZM61.6774 23.6577V24.7758H62.334C62.4999 24.7758 62.6397 24.7215 62.7553 24.6139C62.8709 24.5063 62.9282 24.3726 62.9282 24.2127C62.9282 24.0649 62.874 23.9352 62.7664 23.8246C62.6588 23.714 62.523 23.6587 62.3602 23.6587H61.6774V23.6577Z" fill="black"/>
<path d="M70.6674 24.8553C70.6674 25.3258 70.5106 25.719 70.1969 26.0347C69.8801 26.3544 69.493 26.5133 69.0345 26.5133C68.573 26.5133 68.1859 26.3534 67.8722 26.0347C67.5585 25.718 67.4017 25.3248 67.4017 24.8553C67.4017 24.3857 67.5585 23.9916 67.8722 23.6759C68.1859 23.3561 68.573 23.1973 69.0345 23.1973C69.4961 23.1973 69.8832 23.3581 70.1969 23.6809C70.5106 23.9966 70.6674 24.3877 70.6674 24.8553ZM67.8199 24.8553C67.8199 25.2223 67.9356 25.5249 68.1658 25.7642C68.3991 26.0035 68.6887 26.1232 69.0345 26.1232C69.3804 26.1232 69.669 26.0035 69.8993 25.7642C70.1325 25.5279 70.2492 25.2243 70.2492 24.8553C70.2492 24.4863 70.1325 24.1826 69.8993 23.9463C69.669 23.707 69.3804 23.5874 69.0345 23.5874C68.6887 23.5874 68.3991 23.707 68.1658 23.9463C67.9356 24.1856 67.8199 24.4883 67.8199 24.8553Z" fill="black"/>
<path d="M72.9779 25.1568V26.4428H72.5697V23.2676H73.6516C73.9261 23.2676 74.1604 23.3591 74.3524 23.5421C74.5475 23.7251 74.645 23.9483 74.645 24.2117C74.645 24.4802 74.5475 24.7054 74.3524 24.8854C74.1634 25.0653 73.9291 25.1558 73.6516 25.1558H72.9779V25.1568ZM72.9779 23.6577V24.7667H73.6606C73.8235 24.7667 73.9583 24.7124 74.0638 24.6028C74.1734 24.4932 74.2277 24.3635 74.2277 24.2127C74.2277 24.0649 74.1734 23.9362 74.0638 23.8266C73.9572 23.714 73.8225 23.6577 73.6606 23.6577H72.9779Z" fill="black"/>
<path d="M78.3441 23.2676V23.6577H76.8982V24.6642H78.2023V25.0453H76.8982V26.0517H78.3441V26.4419H76.49V23.2666H78.3441V23.2676Z" fill="black"/>
<path d="M80.721 26.4428H80.3127V23.2676H81.3946C81.6691 23.2676 81.9034 23.3581 82.0974 23.5401C82.2915 23.7221 82.388 23.9463 82.388 24.2117C82.388 24.4309 82.3166 24.625 82.1729 24.7949C82.0291 24.9648 81.8481 25.0734 81.6299 25.1207L81.6209 25.1337L82.5127 26.4247V26.4428H82.0291L81.1734 25.1568H80.721V26.4428ZM80.721 23.6577V24.7758H81.3775C81.5434 24.7758 81.6832 24.7215 81.7988 24.6139C81.9145 24.5063 81.9718 24.3726 81.9718 24.2127C81.9718 24.0649 81.9175 23.9352 81.8099 23.8246C81.7023 23.714 81.5666 23.6587 81.4037 23.6587H80.721V23.6577Z" fill="black"/>
<path d="M84.4815 26.4428H84.0291L85.2266 23.2676H85.6881L86.8856 26.4428H86.4331L86.1275 25.5822H84.7922L84.4815 26.4428ZM85.4478 23.7683L84.9289 25.2011H85.9847L85.4659 23.7683H85.4478Z" fill="black"/>
<path d="M89.4706 23.6577V26.4428H89.0624V23.6577H88.1756V23.2676H90.3575V23.6577H89.4706Z" fill="black"/>
<path d="M92.6106 26.4428H92.2023V23.2676H92.6106V26.4428Z" fill="black"/>
<path d="M95.076 26.4428H94.6678V23.2676H95.1645L96.7079 25.738H96.726L96.7079 25.1257V23.2676H97.1161V26.4428H96.6908L95.076 23.8528H95.0579L95.076 24.4651V26.4428Z" fill="black"/>
<path d="M102.186 24.984C102.186 25.4274 102.054 25.7813 101.791 26.0437C101.495 26.3574 101.106 26.5143 100.624 26.5143C100.163 26.5143 99.7726 26.3544 99.4538 26.0357C99.1341 25.7159 98.9752 25.3228 98.9752 24.8563C98.9752 24.3897 99.1351 23.9956 99.4538 23.6768C99.7736 23.3571 100.164 23.1982 100.624 23.1982C100.857 23.1982 101.078 23.2395 101.285 23.3219C101.492 23.4044 101.662 23.522 101.795 23.6728L101.502 23.9654C101.404 23.8468 101.278 23.7543 101.123 23.6879C100.968 23.6215 100.801 23.5884 100.624 23.5884C100.278 23.5884 99.9857 23.708 99.7464 23.9473C99.5101 24.1896 99.3915 24.4933 99.3915 24.8563C99.3915 25.2192 99.5101 25.5229 99.7464 25.7652C99.9857 26.0045 100.278 26.1241 100.624 26.1241C100.941 26.1241 101.203 26.0357 101.413 25.8577C101.624 25.6807 101.744 25.4364 101.777 25.1257H100.624V24.7446H102.164C102.178 24.8271 102.186 24.9065 102.186 24.984Z" fill="black"/>
<path d="M108.323 25.5934C108.323 25.8719 108.221 26.0961 108.017 26.265C107.81 26.4309 107.559 26.5133 107.263 26.5133C107 26.5133 106.768 26.4369 106.566 26.2831C106.365 26.1293 106.227 25.9191 106.149 25.6537L106.539 25.4938C106.565 25.5883 106.603 25.6738 106.65 25.7512C106.697 25.8286 106.752 25.894 106.816 25.9483C106.879 26.0026 106.95 26.0458 107.027 26.077C107.103 26.1082 107.185 26.1232 107.271 26.1232C107.457 26.1232 107.61 26.075 107.728 25.9794C107.846 25.8839 107.905 25.7552 107.905 25.5954C107.905 25.4626 107.855 25.349 107.758 25.2535C107.666 25.162 107.494 25.0735 107.243 24.9871C106.989 24.8956 106.831 24.8332 106.769 24.801C106.432 24.6301 106.263 24.3767 106.263 24.0429C106.263 23.8097 106.356 23.6096 106.542 23.4437C106.731 23.2778 106.964 23.1953 107.238 23.1953C107.48 23.1953 107.691 23.2577 107.868 23.3813C108.044 23.503 108.163 23.6548 108.222 23.8378L107.841 23.9977C107.806 23.879 107.736 23.7805 107.63 23.7031C107.526 23.6247 107.397 23.5854 107.246 23.5854C107.086 23.5854 106.952 23.6297 106.843 23.7182C106.733 23.8006 106.679 23.9082 106.679 24.0399C106.679 24.1485 106.722 24.243 106.808 24.3224C106.902 24.4019 107.107 24.4964 107.424 24.605C107.746 24.7146 107.976 24.8493 108.114 25.0072C108.252 25.165 108.323 25.3631 108.323 25.5934Z" fill="black"/>
<path d="M111.312 24.9658V26.4428H110.904V24.9658L109.835 23.2676H110.314L111.099 24.5586H111.117L111.884 23.2676H112.363L111.312 24.9658Z" fill="black"/>
<path d="M116.048 25.5934C116.048 25.8719 115.946 26.0961 115.742 26.265C115.535 26.4309 115.284 26.5133 114.988 26.5133C114.725 26.5133 114.493 26.4369 114.292 26.2831C114.091 26.1293 113.953 25.9191 113.875 25.6537L114.265 25.4938C114.291 25.5883 114.329 25.6738 114.376 25.7512C114.423 25.8286 114.478 25.894 114.542 25.9483C114.605 26.0026 114.676 26.0458 114.753 26.077C114.829 26.1082 114.911 26.1232 114.997 26.1232C115.183 26.1232 115.336 26.075 115.454 25.9794C115.572 25.8839 115.631 25.7552 115.631 25.5954C115.631 25.4626 115.581 25.349 115.484 25.2535C115.392 25.162 115.22 25.0735 114.969 24.9871C114.715 24.8956 114.557 24.8332 114.495 24.801C114.158 24.6301 113.989 24.3767 113.989 24.0429C113.989 23.8097 114.082 23.6096 114.268 23.4437C114.457 23.2778 114.69 23.1953 114.964 23.1953C115.206 23.1953 115.417 23.2577 115.594 23.3813C115.77 23.503 115.889 23.6548 115.948 23.8378L115.567 23.9977C115.532 23.879 115.462 23.7805 115.356 23.7031C115.252 23.6247 115.123 23.5854 114.972 23.5854C114.812 23.5854 114.678 23.6297 114.569 23.7182C114.459 23.8006 114.405 23.9082 114.405 24.0399C114.405 24.1485 114.448 24.243 114.534 24.3224C114.628 24.4019 114.833 24.4964 115.15 24.605C115.472 24.7146 115.702 24.8493 115.84 25.0072C115.98 25.168 116.048 25.3631 116.048 25.5934Z" fill="black"/>
<path d="M118.998 23.6577V26.4428H118.59V23.6577H117.703V23.2676H119.885V23.6577H118.998Z" fill="black"/>
<path d="M123.583 23.2676V23.6577H122.137V24.6642H123.441V25.0453H122.137V26.0517H123.583V26.4419H121.729V23.2666H123.583V23.2676Z" fill="black"/>
<path d="M125.96 26.4428H125.552V23.2676H125.96L127.064 25.2011H127.082L128.186 23.2676H128.594V26.4428H128.186V24.5576L128.204 24.0257H128.186L127.193 25.7682H126.953L125.96 24.0257H125.942L125.96 24.5576V26.4428Z" fill="black"/>
<path d="M13.7738 6.05592L17.8459 0H9.70166L13.7728 6.05592H13.7738Z" fill="black"/>
<path d="M0.616272 13.5205C0.628338 13.5477 0.64342 13.5728 0.660513 13.597L4.64014 19.5151C4.65322 19.5352 4.66629 19.5523 4.68238 19.5704L8.7525 13.5195H0.616272V13.5205Z" fill="black"/>
<path d="M9.22591 12.8157H9.22692L13.2991 6.76074H5.15479L9.22591 12.8157Z" fill="black"/>
<path d="M22.3605 6.808C22.3625 6.80297 22.3655 6.79895 22.3675 6.79593C22.3745 6.78387 22.3806 6.7718 22.3856 6.76074H14.2484L18.3215 12.8157C18.8584 12.0173 22.273 6.9367 22.3102 6.8814L22.3605 6.808Z" fill="black"/>
<path d="M9.70062 33.1633H17.8449L13.7728 27.1074L9.70062 33.1633Z" fill="black"/>
<path d="M26.9302 19.6417C26.9182 19.6145 26.9031 19.5894 26.886 19.5653L22.9074 13.6471C22.8933 13.628 22.8792 13.6099 22.8641 13.5918L18.794 19.6427H26.9302V19.6417Z" fill="black"/>
<path d="M18.3195 20.3477H18.3184L14.2473 26.4016H22.3916L18.3195 20.3477Z" fill="black"/>
<path d="M5.2363 26.2819L5.18603 26.3553C5.18401 26.3594 5.181 26.3634 5.17899 26.3664C5.17195 26.3785 5.16592 26.3895 5.1619 26.4016L5.16089 26.4026H13.2981V26.4016H13.2971L9.22599 20.3467C8.68907 21.146 5.2735 26.2266 5.2363 26.2819Z" fill="black"/>
<path d="M9.23009 0.205078C9.214 0.223177 9.19892 0.242278 9.18485 0.262387L5.15393 6.25597H13.2982L9.23009 0.205078Z" fill="black"/>
<path d="M22.3856 6.25594C22.3755 6.23583 22.3645 6.21572 22.3524 6.19762L22.3293 6.16344L18.3607 0.261357C18.3476 0.242253 18.3336 0.223148 18.3175 0.206055L14.2484 6.25695H22.3856V6.25594Z" fill="black"/>
<path d="M9.22592 13.7207L5.15479 19.7766H13.2981L9.22592 13.7207Z" fill="black"/>
<path d="M4.68033 6.96094L0.652436 12.9495C0.63836 12.9706 0.626294 12.9927 0.615234 13.0159H8.75146L4.68033 6.96094Z" fill="black"/>
<path d="M14.2473 26.9082L18.3174 32.9581C18.3335 32.94 18.3476 32.9209 18.3617 32.9008L22.3926 26.9072H14.2473V26.9082Z" fill="black"/>
<path d="M13.2981 26.9072H5.16089C5.16089 26.9072 5.16089 26.9082 5.1619 26.9082C5.17094 26.9283 5.18201 26.9474 5.19407 26.9655L5.21719 27.0007L9.18577 32.9018C9.19884 32.9209 9.21392 32.94 9.229 32.9581L13.2981 26.9072Z" fill="black"/>
<path d="M18.3195 19.4416L22.3926 13.3867H22.3916H14.2484L18.3195 19.4416Z" fill="black"/>
<path d="M18.793 20.1475L22.8651 26.2024L26.893 20.2138C26.9071 20.1927 26.9201 20.1706 26.9312 20.1475H18.793Z" fill="black"/>
</svg>
